# xmcd
#
# Track frame offsets:
#	150
#	11250
#	25325
#	38585
#	51730
#	69155
#	85000
#	100072
#	112387
#	127055
#	141590
#	155305
#	168560
#	182980
#	198987
#	219657
#	232340
#	250037
#	267102
#	280317
#	296390
#	306600
#	319522
#
# Disc length: 4399 seconds
#
# Revision: 0
# Processed by: cddbd v1.5.2PL0 Copyright (c) Steve Scherf et al.
# Submitted via: dBpowerAMP V4.0
#
DISCID=5c112d17
DTITLE=Various Artist - The Very Best of South African Country Volume 4
DYEAR=1997
DGENRE=Country
TTITLE0=Joanna Field - When the boy in your arms
TTITLE1=Lance James - Red wine blue memories
TTITLE2=Barbara Ray - Let me be there
TTITLE3=Matt Hurter - The littlest cowboy
TTITLE4=Paul Greef - The birth of a pedal steel guitar
TTITLE5=Jody Wayne - The wonder of your love
TTITLE6=Maria Tyl - Welcome to my world
TTITLE7=Vangied Coker - We will make love
TTITLE8=Maritza - Love will find a way
TTITLE9=Charlie Dicks - The end of the world
TTITLE10=Lee Magnum - Don't let me cross over
TTITLE11=Clive Bruce - Sometimes I get lucky
TTITLE12=Bobby Angel - Mama don't let your babies grow up to be cowboys
TTITLE13=Ken Mullen - Maggie
TTITLE14=Kenny Oliver - Mama Jean
TTITLE15=Charles Jacobie - Lonely girl
TTITLE16=Gene and Duane - She will
TTITLE17=OTH - One step over the line
TTITLE18=Louis Shawson - Memory of you
TTITLE19=Dave Weston - Feel the country
TTITLE20=Virginia Lee - Mr. Fire eyes
TTITLE21=Ray Chord - Four walls
TTITLE22=Buddy Masango - From a Jack to a King
EXTD=
EXTT0=
EXTT1=
EXTT2=
EXTT3=
EXTT4=
EXTT5=
EXTT6=
EXTT7=
EXTT8=
EXTT9=
EXTT10=
EXTT11=
EXTT12=
EXTT13=
EXTT14=
EXTT15=
EXTT16=
EXTT17=
EXTT18=
EXTT19=
EXTT20=
EXTT21=
EXTT22=
PLAYORDER=
